# xmcd
#
# Track frame offsets:
#	150
#	20124
#	42990
#	71397
#	91319
#	112792
#	133248
#	159265
#	177788
#	202641
#	217665
#	240224
#
# Disc length: 3478 seconds
#
# Revision: 2
# Processed by: cddbd v1.5PL3 Copyright (c) Steve Scherf et al.
# Submitted via: EasyCDDAExtractor 7.0.5.1
#
DISCID=8b0d940c
DTITLE=Carl Weathersby - Looking Out My Window
DYEAR=1997
DGENRE=Blues
TTITLE0=If That Ain't The Blues
TTITLE1=Feel So Bad
TTITLE2=Looking Out My Window
TTITLE3=Do You Call That A Buddy
TTITLE4=Sweet Music
TTITLE5=Hipshakin' Mama
TTITLE6=The Blues Follow Me Around
TTITLE7=Merry Way
TTITLE8=The Whole Story
TTITLE9=Love Shock
TTITLE10=Feels Like Rain
TTITLE11=Standing At The Crossroads
EXTD=
EXTT0=
EXTT1=
EXTT2=
EXTT3=
EXTT4=
EXTT5=
EXTT6=
EXTT7=
EXTT8=
EXTT9=
EXTT10=
EXTT11=
PLAYORDER=
